{
  "source": "C:\\Users\\mbnyau\\Desktop\\stuff\\MIUN\\quantitative_research\\video_compression\\videos\\Jockey_1920x1080_120fps_420_8bit_YUV.mp4",
  "output": "C:\\Users\\mbnyau\\Desktop\\stuff\\MIUN\\quantitative_research\\video_compression\\compressed_videos\\Jockey_1920x1080_120fps_420_8bit_YUV_hevc.mp4",
  "codec": "hevc",
  "ok": "Input #0, mov,mp4,m4a,3gp,3g2,mj2, from 'C:\\Users\\mbnyau\\Desktop\\stuff\\MIUN\\quantitative_research\\video_compression\\videos\\Jockey_1920x1080_120fps_420_8bit_YUV.mp4':\n  Metadata:\n    major_brand     : isom\n    minor_version   : 512\n    compatible_brands: isomiso2mp41\n    encoder         : Lavf58.76.100\n  Duration: 00:00:20.00, start: 0.000000, bitrate: 8918 kb/s\n  Stream #0:0[0x1](und): Video: mpeg4 (Simple Profile) (mp4v / 0x7634706D), yuv420p, 1920x1080 [SAR 1:1 DAR 16:9], 8916 kb/s, 30 fps, 30 tbr, 15360 tbn (default)\n    Metadata:\n      handler_name    : VideoHandler\n      vendor_id       : [0][0][0][0]\n[out#0/mp4 @ 000001db7d732000] Codec AVOption b:a (set bitrate (in bits/s)) has not been used for any stream. The most likely reason is either wrong type (e.g. a video option with no video streams) or that it is a private option of some decoder which was not actually used for any stream.\nStream mapping:\n  Stream #0:0 -> #0:0 (mpeg4 (native) -> hevc (libx265))\nPress [q] to stop, [?] for help\n[libx265 @ 000001db7d72f4c0] Unknown option: \"aq-mode.\nx265 [info]: HEVC encoder version 4.1+190-8f11c33ac\nx265 [info]: build info [Windows][GCC 15.1.0][64 bit] 10bit\nx265 [info]: using cpu capabilities: MMX2 SSE2Fast LZCNT SSSE3 SSE4.2 AVX FMA3 BMI2 AVX2\nx265 [info]: Main 10 profile, Level-4 (Main tier)\nx265 [info]: Thread pool created using 12 threads\nx265 [info]: Slices                              : 1\nx265 [info]: frame threads / pool features       : 3 / wpp(17 rows)\nx265 [info]: Coding QT: max CU size, min CU size : 64 / 8\nx265 [info]: Residual QT: max TU size, max depth : 32 / 1 inter / 1 intra\nx265 [info]: ME / range / subpel / merge         : star / 57 / 3 / 3\nx265 [info]: Keyframe min / max / scenecut / bias  : 25 / 250 / 40 / 5.00 \nx265 [info]: Lookahead / bframes / badapt        : 25 / 4 / 2\nx265 [info]: b-pyramid / weightp / weightb       : 1 / 1 / 0\nx265 [info]: References / ref-limit  cu / depth  : 4 / on / on\nx265 [info]: AQ: mode / str / qg-size / cu-tree  : 2 / 1.0 / 32 / 1\nx265 [info]: Rate Control / qCompress            : ABR-2000 kbps / 0.60\nx265 [info]: VBV/HRD buffer / max-rate / init    : 2000 / 2000 / 0.750\nx265 [info]: tools: rect limit-modes rd=4 psy-rd=2.00 rdoq=2 psy-rdoq=1.00\nx265 [info]: tools: rskip mode=1 signhide tmvp strong-intra-smoothing lslices=4\nx265 [info]: tools: deblock sao dhdr10-info\nOutput #0, mp4, to 'C:\\Users\\mbnyau\\Desktop\\stuff\\MIUN\\quantitative_research\\video_compression\\compressed_videos\\Jockey_1920x1080_120fps_420_8bit_YUV_hevc.mp4':\n  Metadata:\n    major_brand     : isom\n    minor_version   : 512\n    compatible_brands: isomiso2mp41\n    encoder         : Lavf62.3.100\n  Stream #0:0(und): Video: hevc (hev1 / 0x31766568), yuv420p10le(tv, progressive), 1920x1080 [SAR 1:1 DAR 16:9], q=2-31, 2000 kb/s, 30 fps, 15360 tbn (default)\n    Metadata:\n      encoder         : Lavc62.11.100 libx265\n      handler_name    : VideoHandler\n      vendor_id       : [0][0][0][0]\n    Side data:\n      cpb: bitrate max/min/avg: 2000000/0/2000000 buffer size: 2000000 vbv_delay: N/A\nframe=    0 fps=0.0 q=0.0 size=       0KiB time=N/A bitrate=N/A speed=N/A elapsed=0:00:00.51    \nframe=    0 fps=0.0 q=0.0 size=       0KiB time=N/A bitrate=N/A speed=N/A elapsed=0:00:01.04    \nframe=    0 fps=0.0 q=0.0 size=       0KiB time=N/A bitrate=N/A speed=N/A elapsed=0:00:01.57    \nframe=    0 fps=0.0 q=0.0 size=       0KiB time=N/A bitrate=N/A speed=N/A elapsed=0:00:02.11    \nframe=    0 fps=0.0 q=0.0 size=       0KiB time=N/A bitrate=N/A speed=N/A elapsed=0:00:02.64    \nframe=    0 fps=0.0 q=0.0 size=       0KiB time=N/A bitrate=N/A speed=N/A elapsed=0:00:03.18    \nframe=    0 fps=0.0 q=0.0 size=       0KiB time=N/A bitrate=N/A speed=N/A elapsed=0:00:03.74    \nframe=    0 fps=0.0 q=0.0 size=       0KiB time=N/A bitrate=N/A speed=N/A elapsed=0:00:04.31    \nframe=    1 fps=0.2 q=30.0 size=       0KiB time=-00:00:00.03 bitrate=N/A speed=N/A elapsed=0:00:05.08    \nframe=    1 fps=0.2 q=30.0 size=       0KiB time=-00:00:00.03 bitrate=N/A speed=N/A elapsed=0:00:05.76    \nframe=    2 fps=0.3 q=33.1 size=       0KiB time=00:00:00.00 bitrate=N/A speed=   0x elapsed=0:00:06.28    \nframe=    2 fps=0.3 q=33.1 size=       0KiB time=00:00:00.00 bitrate=N/A speed=   0x elapsed=0:00:06.86    \nframe=    2 fps=0.3 q=33.1 size=       0KiB time=00:00:00.00 bitrate=N/A speed=   0x elapsed=0:00:07.44    \nframe=    3 fps=0.4 q=31.9 size=       0KiB time=00:00:00.03 bitrate=  10.6kbits/s speed=0.00419x elapsed=0:00:07.95    \nframe=    3 fps=0.4 q=31.9 size=       0KiB time=00:00:00.03 bitrate=  10.6kbits/s speed=0.00392x elapsed=0:00:08.51    \nframe=    3 fps=0.3 q=31.9 size=       0KiB time=00:00:00.03 bitrate=  10.6kbits/s speed=0.00369x elapsed=0:00:09.03    \nframe=    4 fps=0.4 q=31.4 size=       0KiB time=00:00:00.06 bitrate=   5.3kbits/s speed=0.00697x elapsed=0:00:09.55    \nframe=    4 fps=0.4 q=31.4 size=       0KiB time=00:00:00.06 bitrate=   5.3kbits/s speed=0.00661x elapsed=0:00:10.08    \nframe=    5 fps=0.5 q=30.2 size=       0KiB time=00:00:00.10 bitrate=   3.5kbits/s speed=0.00941x elapsed=0:00:10.62    \nframe=    5 fps=0.4 q=30.2 size=       0KiB time=00:00:00.10 bitrate=   3.5kbits/s speed=0.00896x elapsed=0:00:11.16    \nframe=    6 fps=0.5 q=29.8 size=       0KiB time=00:00:00.13 bitrate=   2.6kbits/s speed=0.0114x elapsed=0:00:11.69    \nframe=    6 fps=0.5 q=29.8 size=       0KiB time=00:00:00.13 bitrate=   2.6kbits/s speed=0.0109x elapsed=0:00:12.21    \nframe=    6 fps=0.5 q=29.8 size=       0KiB time=00:00:00.13 bitrate=   2.6kbits/s speed=0.0104x elapsed=0:00:12.76    \nframe=    7 fps=0.5 q=28.9 size=       0KiB time=00:00:00.16 bitrate=   2.1kbits/s speed=0.0125x elapsed=0:00:13.28    \nframe=    7 fps=0.5 q=28.9 size=       0KiB time=00:00:00.16 bitrate=   2.1kbits/s speed=0.0121x elapsed=0:00:13.82    \nframe=    7 fps=0.5 q=28.9 size=       0KiB time=00:00:00.16 bitrate=   2.1kbits/s speed=0.0116x elapsed=0:00:14.34    \nframe=    7 fps=0.5 q=28.9 size=       0KiB time=00:00:00.16 bitrate=   2.1kbits/s speed=0.0112x elapsed=0:00:14.86    \nframe=    7 fps=0.5 q=28.9 size=       0KiB time=00:00:00.16 bitrate=   2.1kbits/s speed=0.0108x elapsed=0:00:15.38    \nframe=    8 fps=0.5 q=28.6 size=       0KiB time=00:00:00.20 bitrate=   1.8kbits/s speed=0.0126x elapsed=0:00:15.91    \nframe=    8 fps=0.5 q=28.6 size=       0KiB time=00:00:00.20 bitrate=   1.8kbits/s speed=0.0122x elapsed=0:00:16.43    \nframe=    8 fps=0.5 q=28.6 size=       0KiB time=00:00:00.20 bitrate=   1.8kbits/s speed=0.0118x elapsed=0:00:16.96    \nframe=    8 fps=0.5 q=28.6 size=       0KiB time=00:00:00.20 bitrate=   1.8kbits/s speed=0.0114x elapsed=0:00:17.49    \nframe=    9 fps=0.5 q=28.7 size=       0KiB time=00:00:00.23 bitrate=   1.5kbits/s speed=0.0129x elapsed=0:00:18.02    \nframe=   10 fps=0.5 q=29.1 size=       0KiB time=00:00:00.26 bitrate=   1.3kbits/s speed=0.0144x elapsed=0:00:18.52    \nframe=   11 fps=0.6 q=27.9 size=       0KiB time=00:00:00.30 bitrate=   1.2kbits/s speed=0.0157x elapsed=0:00:19.04    \nframe=   12 fps=0.6 q=35.5 size=       0KiB time=00:00:00.33 bitrate=   1.1kbits/s speed=0.017x elapsed=0:00:19.56    \nframe=   13 fps=0.6 q=35.5 size=       0KiB time=00:00:00.36 bitrate=   1.0kbits/s speed=0.0183x elapsed=0:00:20.08    \nframe=   14 fps=0.7 q=27.8 size=       0KiB time=00:00:00.40 bitrate=   0.9kbits/s speed=0.0194x elapsed=0:00:20.59    \nframe=   16 fps=0.8 q=27.1 size=       0KiB time=00:00:00.46 bitrate=   0.8kbits/s speed=0.0221x elapsed=0:00:21.10    \nframe=   17 fps=0.8 q=27.4 size=       0KiB time=00:00:00.50 bitrate=   0.7kbits/s speed=0.0231x elapsed=0:00:21.64    \nframe=   18 fps=0.8 q=26.9 size=       0KiB time=00:00:00.53 bitrate=   0.7kbits/s speed=0.0241x elapsed=0:00:22.16    \nframe=   19 fps=0.8 q=27.2 size=       0KiB time=00:00:00.56 bitrate=   0.6kbits/s speed=0.025x elapsed=0:00:22.69    \nframe=   21 fps=0.9 q=26.7 size=       0KiB time=00:00:00.63 bitrate=   0.6kbits/s speed=0.0273x elapsed=0:00:23.22    \nframe=   22 fps=0.9 q=26.8 size=       0KiB time=00:00:00.66 bitrate=   0.5kbits/s speed=0.0281x elapsed=0:00:23.75    \nframe=   23 fps=0.9 q=27.6 size=       0KiB time=00:00:00.70 bitrate=   0.5kbits/s speed=0.0288x elapsed=0:00:24.26    \nframe=   24 fps=1.0 q=25.8 size=       0KiB time=00:00:00.73 bitrate=   0.5kbits/s speed=0.0296x elapsed=0:00:24.78    \nframe=   25 fps=1.0 q=32.4 size=       0KiB time=00:00:00.76 bitrate=   0.5kbits/s speed=0.0303x elapsed=0:00:25.29    \nframe=   27 fps=1.0 q=26.3 size=       0KiB time=00:00:00.83 bitrate=   0.4kbits/s speed=0.0323x elapsed=0:00:25.83    \nframe=   28 fps=1.1 q=26.3 size=       0KiB time=00:00:00.86 bitrate=   0.4kbits/s speed=0.0329x elapsed=0:00:26.33    \nframe=   29 fps=1.1 q=26.1 size=       0KiB time=00:00:00.90 bitrate=   0.4kbits/s speed=0.0335x elapsed=0:00:26.88    \nframe=   30 fps=1.1 q=26.6 size=       0KiB time=00:00:00.93 bitrate=   0.4kbits/s speed=0.0341x elapsed=0:00:27.39    \nframe=   31 fps=1.1 q=26.4 size=       0KiB time=00:00:00.96 bitrate=   0.4kbits/s speed=0.0346x elapsed=0:00:27.90    \nframe=   32 fps=1.1 q=26.4 size=       0KiB time=00:00:01.00 bitrate=   0.4kbits/s speed=0.0352x elapsed=0:00:28.42    \nframe=   34 fps=1.2 q=26.8 size=       0KiB time=00:00:01.06 bitrate=   0.3kbits/s speed=0.0369x elapsed=0:00:28.94    \nframe=   35 fps=1.2 q=25.8 size=       0KiB time=00:00:01.10 bitrate=   0.3kbits/s speed=0.0374x elapsed=0:00:29.45    \nframe=   36 fps=1.2 q=31.6 size=       0KiB time=00:00:01.13 bitrate=   0.3kbits/s speed=0.0378x elapsed=0:00:29.97    \nframe=   37 fps=1.2 q=32.6 size=     256KiB time=00:00:01.16 bitrate=1797.9kbits/s speed=0.0383x elapsed=0:00:30.48    \nframe=   38 fps=1.2 q=25.8 size=     256KiB time=00:00:01.20 bitrate=1747.9kbits/s speed=0.0387x elapsed=0:00:30.99    \nframe=   39 fps=1.2 q=26.1 size=     256KiB time=00:00:01.23 bitrate=1700.7kbits/s speed=0.0391x elapsed=0:00:31.51    \nframe=   40 fps=1.2 q=25.7 size=     256KiB time=00:00:01.26 bitrate=1655.9kbits/s speed=0.0395x elapsed=0:00:32.04    \nframe=   40 fps=1.2 q=25.7 size=     256KiB time=00:00:01.26 bitrate=1655.9kbits/s speed=0.0389x elapsed=0:00:32.55    \nframe=   41 fps=1.2 q=25.9 size=     256KiB time=00:00:01.30 bitrate=1613.5kbits/s speed=0.0393x elapsed=0:00:33.08    \nframe=   42 fps=1.3 q=26.2 size=     256KiB time=00:00:01.33 bitrate=1573.1kbits/s speed=0.0397x elapsed=0:00:33.59    \nframe=   42 fps=1.2 q=26.2 size=     256KiB time=00:00:01.33 bitrate=1573.1kbits/s speed=0.0391x elapsed=0:00:34.10    \nframe=   44 fps=1.3 q=26.2 size=     256KiB time=00:00:01.40 bitrate=1498.2kbits/s speed=0.0404x elapsed=0:00:34.62    \nframe=   44 fps=1.3 q=26.2 size=     256KiB time=00:00:01.40 bitrate=1498.2kbits/s speed=0.0398x elapsed=0:00:35.13    \nframe=   46 fps=1.3 q=26.7 size=     256KiB time=00:00:01.46 bitrate=1430.1kbits/s speed=0.0411x elapsed=0:00:35.65    \nframe=   47 fps=1.3 q=25.6 size=     256KiB time=00:00:01.50 bitrate=1398.3kbits/s speed=0.0415x elapsed=0:00:36.17    \nframe=   48 fps=1.3 q=32.3 size=     256KiB time=00:00:01.53 bitrate=1367.9kbits/s speed=0.0418x elapsed=0:00:36.69    \nframe=   50 fps=1.3 q=26.0 size=     256KiB time=00:00:01.60 bitrate=1310.9kbits/s speed=0.043x elapsed=0:00:37.20    \nframe=   51 fps=1.4 q=26.0 size=     256KiB time=00:00:01.63 bitrate=1284.2kbits/s speed=0.0433x elapsed=0:00:37.71    \nframe=   52 fps=1.4 q=25.9 size=     256KiB time=00:00:01.66 bitrate=1258.5kbits/s speed=0.0436x elapsed=0:00:38.23    \nframe=   53 fps=1.4 q=25.9 size=     256KiB time=00:00:01.70 bitrate=1233.8kbits/s speed=0.0439x elapsed=0:00:38.75    \nframe=   54 fps=1.4 q=26.6 size=     256KiB time=00:00:01.73 bitrate=1210.1kbits/s speed=0.0441x elapsed=0:00:39.27    \nframe=   55 fps=1.4 q=26.3 size=     256KiB time=00:00:01.76 bitrate=1187.3kbits/s speed=0.0444x elapsed=0:00:39.78    \nframe=   56 fps=1.4 q=26.4 size=     256KiB time=00:00:01.80 bitrate=1165.3kbits/s speed=0.0447x elapsed=0:00:40.29    \nframe=   56 fps=1.4 q=26.4 size=     256KiB time=00:00:01.80 bitrate=1165.3kbits/s speed=0.0441x elapsed=0:00:40.80    \nframe=   58 fps=1.4 q=26.6 size=     256KiB time=00:00:01.86 bitrate=1123.7kbits/s speed=0.0452x elapsed=0:00:41.32    \nframe=   59 fps=1.4 q=25.7 size=     256KiB time=00:00:01.90 bitrate=1103.9kbits/s speed=0.0454x elapsed=0:00:41.84    \nframe=   60 fps=1.4 q=31.4 size=     256KiB time=00:00:01.93 bitrate=1084.9kbits/s speed=0.0456x elapsed=0:00:42.36    \nframe=   61 fps=1.4 q=32.6 size=     256KiB time=00:00:01.96 bitrate=1066.5kbits/s speed=0.0459x elapsed=0:00:42.87    \nframe=   62 fps=1.4 q=26.0 size=     256KiB time=00:00:02.00 bitrate=1048.8kbits/s speed=0.0461x elapsed=0:00:43.38    \nframe=   64 fps=1.5 q=25.9 size=     256KiB time=00:00:02.06 bitrate=1014.9kbits/s speed=0.0471x elapsed=0:00:43.91    \nframe=   64 fps=1.4 q=25.9 size=     256KiB time=00:00:02.06 bitrate=1014.9kbits/s speed=0.0465x elapsed=0:00:44.42    \nframe=   65 fps=1.4 q=26.3 size=     256KiB time=00:00:02.10 bitrate= 998.8kbits/s speed=0.0467x elapsed=0:00:44.93    \nframe=   66 fps=1.5 q=26.2 size=     256KiB time=00:00:02.13 bitrate= 983.2kbits/s speed=0.0469x elapsed=0:00:45.45    \nframe=   67 fps=1.5 q=26.4 size=     256KiB time=00:00:02.16 bitrate= 968.1kbits/s speed=0.0471x elapsed=0:00:45.96    \nframe=   68 fps=1.5 q=26.1 size=     256KiB time=00:00:02.20 bitrate= 953.4kbits/s speed=0.0473x elapsed=0:00:46.48    \nframe=   69 fps=1.5 q=26.6 size=     256KiB time=00:00:02.23 bitrate= 939.2kbits/s speed=0.0475x elapsed=0:00:46.99    \nframe=   71 fps=1.5 q=25.5 size=     512KiB time=00:00:02.30 bitrate=1823.8kbits/s speed=0.0484x elapsed=0:00:47.51    \nframe=   72 fps=1.5 q=31.1 size=     512KiB time=00:00:02.33 bitrate=1797.7kbits/s speed=0.0486x elapsed=0:00:48.03    \nframe=   73 fps=1.5 q=32.5 size=     512KiB time=00:00:02.36 bitrate=1772.4kbits/s speed=0.0487x elapsed=0:00:48.54    \nframe=   75 fps=1.5 q=25.6 size=     512KiB time=00:00:02.43 bitrate=1723.8kbits/s speed=0.0496x elapsed=0:00:49.06    \nframe=   76 fps=1.5 q=25.6 size=     512KiB time=00:00:02.46 bitrate=1700.5kbits/s speed=0.0498x elapsed=0:00:49.57    \nframe=   76 fps=1.5 q=25.6 size=     512KiB time=00:00:02.46 bitrate=1700.5kbits/s speed=0.0492x elapsed=0:00:50.09    \nframe=   78 fps=1.5 q=25.7 size=     512KiB time=00:00:02.53 bitrate=1655.8kbits/s speed=0.0501x elapsed=0:00:50.61    \nframe=   78 fps=1.5 q=25.7 size=     512KiB time=00:00:02.53 bitrate=1655.8kbits/s speed=0.0496x elapsed=0:00:51.12    \nframe=   80 fps=1.5 q=25.8 size=     512KiB time=00:00:02.60 bitrate=1613.3kbits/s speed=0.0504x elapsed=0:00:51.63    \nframe=   81 fps=1.6 q=25.9 size=     512KiB time=00:00:02.63 bitrate=1592.9kbits/s speed=0.0505x elapsed=0:00:52.15    \nframe=   83 fps=1.6 q=25.2 size=     512KiB time=00:00:02.70 bitrate=1553.6kbits/s speed=0.0513x elapsed=0:00:52.66    \nframe=   84 fps=1.6 q=30.8 size=     512KiB time=00:00:02.73 bitrate=1534.6kbits/s speed=0.0514x elapsed=0:00:53.18    \nframe=   84 fps=1.6 q=30.8 size=     512KiB time=00:00:02.73 bitrate=1534.6kbits/s speed=0.0509x elapsed=0:00:53.69    \nframe=   85 fps=1.6 q=32.4 size=     512KiB time=00:00:02.76 bitrate=1516.1kbits/s speed=0.051x elapsed=0:00:54.21    \nframe=   86 fps=1.6 q=25.6 size=     512KiB time=00:00:02.80 bitrate=1498.1kbits/s speed=0.0512x elapsed=0:00:54.73    \nframe=   87 fps=1.6 q=25.9 size=     512KiB time=00:00:02.83 bitrate=1480.5kbits/s speed=0.0513x elapsed=0:00:55.25    \nframe=   89 fps=1.6 q=26.1 size=     512KiB time=00:00:02.90 bitrate=1446.4kbits/s speed=0.052x elapsed=0:00:55.76    \nframe=   89 fps=1.6 q=26.1 size=     512KiB time=00:00:02.90 bitrate=1446.4kbits/s speed=0.0515x elapsed=0:00:56.29    \nframe=   91 fps=1.6 q=26.1 size=     512KiB time=00:00:02.96 bitrate=1413.9kbits/s speed=0.0522x elapsed=0:00:56.79    \nframe=   92 fps=1.6 q=26.2 size=     512KiB time=00:00:03.00 bitrate=1398.2kbits/s speed=0.0523x elapsed=0:00:57.32    \nframe=   92 fps=1.6 q=26.2 size=     512KiB time=00:00:03.00 bitrate=1398.2kbits/s speed=0.0519x elapsed=0:00:57.83    \nframe=   93 fps=1.6 q=26.4 size=     512KiB time=00:00:03.03 bitrate=1382.9kbits/s speed=0.052x elapsed=0:00:58.34    \nframe=   94 fps=1.6 q=26.4 size=     512KiB time=00:00:03.06 bitrate=1367.8kbits/s speed=0.0521x elapsed=0:00:58.86    \nframe=   95 fps=1.6 q=25.9 size=     512KiB time=00:00:03.10 bitrate=1353.1kbits/s speed=0.0522x elapsed=0:00:59.37    \nframe=   96 fps=1.6 q=31.7 size=     512KiB time=00:00:03.13 bitrate=1338.7kbits/s speed=0.0523x elapsed=0:00:59.89    \nframe=   97 fps=1.6 q=33.1 size=     512KiB time=00:00:03.16 bitrate=1324.6kbits/s speed=0.0524x elapsed=0:01:00.40    \nframe=   98 fps=1.6 q=25.9 size=     512KiB time=00:00:03.20 bitrate=1310.8kbits/s speed=0.0525x elapsed=0:01:00.92    \nframe=   99 fps=1.6 q=26.3 size=     512KiB time=00:00:03.23 bitrate=1297.3kbits/s speed=0.0526x elapsed=0:01:01.44    \nframe=  100 fps=1.6 q=26.0 size=     512KiB time=00:00:03.26 bitrate=1284.1kbits/s speed=0.0527x elapsed=0:01:01.95    \nframe=  101 fps=1.6 q=26.2 size=     768KiB time=00:00:03.30 bitrate=1906.6kbits/s speed=0.0528x elapsed=0:01:02.47    \nframe=  101 fps=1.6 q=26.2 size=     768KiB time=00:00:03.30 bitrate=1906.6kbits/s speed=0.0524x elapsed=0:01:02.98    \nframe=  103 fps=1.6 q=26.2 size=     768KiB time=00:00:03.36 bitrate=1868.9kbits/s speed=0.053x elapsed=0:01:03.50    \nframe=  104 fps=1.6 q=26.3 size=     768KiB time=00:00:03.40 bitrate=1850.5kbits/s speed=0.0531x elapsed=0:01:04.01    \nframe=  105 fps=1.6 q=26.6 size=     768KiB time=00:00:03.43 bitrate=1832.6kbits/s speed=0.0532x elapsed=0:01:04.52    \nframe=  105 fps=1.6 q=26.6 size=     768KiB time=00:00:03.43 bitrate=1832.6kbits/s speed=0.0528x elapsed=0:01:05.04    \nframe=  107 fps=1.6 q=26.2 size=     768KiB time=00:00:03.50 bitrate=1797.7kbits/s speed=0.0534x elapsed=0:01:05.55    \nframe=  107 fps=1.6 q=26.2 size=     768KiB time=00:00:03.50 bitrate=1797.7kbits/s speed=0.053x elapsed=0:01:06.08    \nframe=  109 fps=1.6 q=33.2 size=     768KiB time=00:00:03.56 bitrate=1764.1kbits/s speed=0.0536x elapsed=0:01:06.58    \nframe=  109 fps=1.6 q=33.2 size=     768KiB time=00:00:03.56 bitrate=1764.1kbits/s speed=0.0531x elapsed=0:01:07.11    \nframe=  111 fps=1.6 q=26.4 size=     768KiB time=00:00:03.63 bitrate=1731.7kbits/s speed=0.0537x elapsed=0:01:07.62    \nframe=  111 fps=1.6 q=26.4 size=     768KiB time=00:00:03.63 bitrate=1731.7kbits/s speed=0.0533x elapsed=0:01:08.14    \nframe=  112 fps=1.6 q=26.1 size=     768KiB time=00:00:03.66 bitrate=1715.9kbits/s speed=0.0534x elapsed=0:01:08.66    \nframe=  113 fps=1.6 q=26.2 size=     768KiB time=00:00:03.70 bitrate=1700.5kbits/s speed=0.0535x elapsed=0:01:09.17    \nframe=  114 fps=1.6 q=26.6 size=     768KiB time=00:00:03.73 bitrate=1685.3kbits/s speed=0.0536x elapsed=0:01:09.69    \nframe=  115 fps=1.6 q=26.4 size=     768KiB time=00:00:03.76 bitrate=1670.4kbits/s speed=0.0537x elapsed=0:01:10.20    \nframe=  116 fps=1.6 q=26.6 size=     768KiB time=00:00:03.80 bitrate=1655.7kbits/s speed=0.0537x elapsed=0:01:10.72    \nframe=  116 fps=1.6 q=26.6 size=     768KiB time=00:00:03.80 bitrate=1655.7kbits/s speed=0.0533x elapsed=0:01:11.23    \nframe=  118 fps=1.6 q=26.9 size=     768KiB time=00:00:03.86 bitrate=1627.2kbits/s speed=0.0539x elapsed=0:01:11.75    \nframe=  119 fps=1.6 q=26.8 size=     768KiB time=00:00:03.90 bitrate=1613.3kbits/s speed=0.054x elapsed=0:01:12.27    \nframe=  119 fps=1.6 q=26.8 size=     768KiB time=00:00:03.90 bitrate=1613.3kbits/s speed=0.0536x elapsed=0:01:12.79    \nframe=  120 fps=1.6 q=32.1 size=     768KiB time=00:00:03.93 bitrate=1599.6kbits/s speed=0.0537x elapsed=0:01:13.29    \nframe=  121 fps=1.6 q=33.2 size=     768KiB time=00:00:03.96 bitrate=1586.2kbits/s speed=0.0537x elapsed=0:01:13.81    \nframe=  122 fps=1.6 q=26.7 size=     768KiB time=00:00:04.00 bitrate=1573.0kbits/s speed=0.0538x elapsed=0:01:14.32    \nframe=  123 fps=1.6 q=26.5 size=     768KiB time=00:00:04.03 bitrate=1560.0kbits/s speed=0.0539x elapsed=0:01:14.84    \nframe=  124 fps=1.6 q=26.5 size=     768KiB time=00:00:04.06 bitrate=1547.2kbits/s speed=0.054x elapsed=0:01:15.36    \nframe=  125 fps=1.6 q=26.5 size=     768KiB time=00:00:04.10 bitrate=1534.6kbits/s speed=0.054x elapsed=0:01:15.87    \nframe=  126 fps=1.6 q=26.6 size=     768KiB time=00:00:04.13 bitrate=1522.2kbits/s speed=0.0541x elapsed=0:01:16.39    \nframe=  128 fps=1.7 q=26.6 size=     768KiB time=00:00:04.20 bitrate=1498.0kbits/s speed=0.0546x elapsed=0:01:16.90    \nframe=  131 fps=1.7 q=26.3 size=     768KiB time=00:00:04.30 bitrate=1463.2kbits/s speed=0.0555x elapsed=0:01:17.41    \nframe=  135 fps=1.7 q=26.6 size=    1024KiB time=00:00:04.43 bitrate=1892.2kbits/s speed=0.0569x elapsed=0:01:17.93    \nframe=  138 fps=1.8 q=26.4 size=    1024KiB time=00:00:04.53 bitrate=1850.5kbits/s speed=0.0578x elapsed=0:01:18.45    \nframe=  141 fps=1.8 q=26.6 size=    1024KiB time=00:00:04.63 bitrate=1810.6kbits/s speed=0.0587x elapsed=0:01:18.97    \nframe=  144 fps=1.8 q=30.6 size=    1024KiB time=00:00:04.73 bitrate=1772.3kbits/s speed=0.0595x elapsed=0:01:19.48    \nframe=  148 fps=1.9 q=26.6 size=    1024KiB time=00:00:04.86 bitrate=1723.8kbits/s speed=0.0608x elapsed=0:01:19.99    \nframe=  151 fps=1.9 q=26.7 size=    1024KiB time=00:00:04.96 bitrate=1689.1kbits/s speed=0.0617x elapsed=0:01:20.51    \nframe=  154 fps=1.9 q=26.9 size=    1024KiB time=00:00:05.06 bitrate=1655.7kbits/s speed=0.0625x elapsed=0:01:21.03    \nframe=  157 fps=1.9 q=33.1 size=    1024KiB time=00:00:05.16 bitrate=1623.7kbits/s speed=0.0634x elapsed=0:01:21.54    \nframe=  160 fps=1.9 q=26.3 size=    1024KiB time=00:00:05.26 bitrate=1592.8kbits/s speed=0.0642x elapsed=0:01:22.06    \nframe=  164 fps=2.0 q=26.6 size=    1280KiB time=00:00:05.40 bitrate=1941.9kbits/s speed=0.0654x elapsed=0:01:22.57    \nframe=  167 fps=2.0 q=26.4 size=    1280KiB time=00:00:05.50 bitrate=1906.6kbits/s speed=0.0662x elapsed=0:01:23.09    \nframe=  171 fps=2.0 q=26.7 size=    1280KiB time=00:00:05.63 bitrate=1861.4kbits/s speed=0.0674x elapsed=0:01:23.61    \nframe=  174 fps=2.1 q=26.7 size=    1280KiB time=00:00:05.73 bitrate=1829.0kbits/s speed=0.0682x elapsed=0:01:24.12    \nframe=  177 fps=2.1 q=27.0 size=    1280KiB time=00:00:05.83 bitrate=1797.6kbits/s speed=0.0689x elapsed=0:01:24.64    \nframe=  180 fps=2.1 q=32.2 size=    1280KiB time=00:00:05.93 bitrate=1767.3kbits/s speed=0.0697x elapsed=0:01:25.16    \nframe=  183 fps=2.1 q=26.8 size=    1280KiB time=00:00:06.03 bitrate=1738.0kbits/s speed=0.0704x elapsed=0:01:25.66    \nframe=  186 fps=2.2 q=27.1 size=    1280KiB time=00:00:06.13 bitrate=1709.7kbits/s speed=0.0712x elapsed=0:01:26.19    \nframe=  189 fps=2.2 q=27.0 size=    1280KiB time=00:00:06.23 bitrate=1682.3kbits/s speed=0.0719x elapsed=0:01:26.70    \nframe=  192 fps=2.2 q=26.6 size=    1280KiB time=00:00:06.33 bitrate=1655.7kbits/s speed=0.0726x elapsed=0:01:27.22    \nframe=  196 fps=2.2 q=27.0 size=    1536KiB time=00:00:06.46 bitrate=1945.9kbits/s speed=0.0737x elapsed=0:01:27.73    \nframe=  199 fps=2.3 q=27.1 size=    1536KiB time=00:00:06.56 bitrate=1916.2kbits/s speed=0.0744x elapsed=0:01:28.25    \nframe=  202 fps=2.3 q=27.2 size=    1536KiB time=00:00:06.66 bitrate=1887.5kbits/s speed=0.0751x elapsed=0:01:28.76    \nframe=  206 fps=2.3 q=26.9 size=    1536KiB time=00:00:06.80 bitrate=1850.5kbits/s speed=0.0762x elapsed=0:01:29.28    \nframe=  209 fps=2.3 q=26.7 size=    1536KiB time=00:00:06.90 bitrate=1823.7kbits/s speed=0.0768x elapsed=0:01:29.79    \nframe=  212 fps=2.3 q=26.9 size=    1536KiB time=00:00:07.00 bitrate=1797.6kbits/s speed=0.0775x elapsed=0:01:30.31    \nframe=  216 fps=2.4 q=31.6 size=    1536KiB time=00:00:07.13 bitrate=1764.0kbits/s speed=0.0785x elapsed=0:01:30.83    \nframe=  219 fps=2.4 q=27.0 size=    1536KiB time=00:00:07.23 bitrate=1739.6kbits/s speed=0.0792x elapsed=0:01:31.33    \nframe=  222 fps=2.4 q=27.1 size=    1536KiB time=00:00:07.33 bitrate=1715.9kbits/s speed=0.0798x elapsed=0:01:31.86    \nframe=  225 fps=2.4 q=27.4 size=    1792KiB time=00:00:07.43 bitrate=1974.9kbits/s speed=0.0805x elapsed=0:01:32.38    \nframe=  228 fps=2.5 q=32.0 size=    1792KiB time=00:00:07.53 bitrate=1948.7kbits/s speed=0.0811x elapsed=0:01:32.88    \nframe=  232 fps=2.5 q=27.3 size=    1792KiB time=00:00:07.66 bitrate=1914.8kbits/s speed=0.0821x elapsed=0:01:33.41    \nframe=  235 fps=2.5 q=27.4 size=    1792KiB time=00:00:07.76 bitrate=1890.2kbits/s speed=0.0827x elapsed=0:01:33.91    \nframe=  238 fps=2.5 q=27.6 size=    1792KiB time=00:00:07.86 bitrate=1866.2kbits/s speed=0.0833x elapsed=0:01:34.44    \nframe=  242 fps=2.5 q=27.4 size=    1792KiB time=00:00:08.00 bitrate=1835.1kbits/s speed=0.0842x elapsed=0:01:34.96    \nframe=  245 fps=2.6 q=27.3 size=    1792KiB time=00:00:08.10 bitrate=1812.4kbits/s speed=0.0848x elapsed=0:01:35.46    \nframe=  248 fps=2.6 q=27.6 size=    1792KiB time=00:00:08.20 bitrate=1790.3kbits/s speed=0.0854x elapsed=0:01:35.98    \nframe=  251 fps=2.6 q=24.8 size=    1792KiB time=00:00:08.30 bitrate=1768.7kbits/s speed=0.086x elapsed=0:01:36.49    \nframe=  255 fps=2.6 q=33.2 size=    2048KiB time=00:00:08.43 bitrate=1989.4kbits/s speed=0.0869x elapsed=0:01:37.01    \nframe=  258 fps=2.6 q=27.9 size=    2048KiB time=00:00:08.53 bitrate=1966.1kbits/s speed=0.0875x elapsed=0:01:37.53    \nframe=  262 fps=2.7 q=27.6 size=    2048KiB time=00:00:08.66 bitrate=1935.9kbits/s speed=0.0884x elapsed=0:01:38.04    \nframe=  266 fps=2.7 q=27.6 size=    2048KiB time=00:00:08.80 bitrate=1906.5kbits/s speed=0.0893x elapsed=0:01:38.55    \nframe=  269 fps=2.7 q=27.9 size=    2048KiB time=00:00:08.90 bitrate=1885.1kbits/s speed=0.0898x elapsed=0:01:39.08    \nframe=  273 fps=2.7 q=33.8 size=    2048KiB time=00:00:09.03 bitrate=1857.3kbits/s speed=0.0907x elapsed=0:01:39.60    \nframe=  276 fps=2.8 q=31.5 size=    2048KiB time=00:00:09.13 bitrate=1837.0kbits/s speed=0.0912x elapsed=0:01:40.10    \nframe=  279 fps=2.8 q=27.6 size=    2048KiB time=00:00:09.23 bitrate=1817.1kbits/s speed=0.0918x elapsed=0:01:40.62    \nframe=  282 fps=2.8 q=27.9 size=    2048KiB time=00:00:09.33 bitrate=1797.6kbits/s speed=0.0923x elapsed=0:01:41.13    \nframe=  284 fps=2.8 q=28.2 size=    2048KiB time=00:00:09.40 bitrate=1784.8kbits/s speed=0.0925x elapsed=0:01:41.65    \nframe=  288 fps=2.8 q=33.6 size=    2304KiB time=00:00:09.53 bitrate=1979.9kbits/s speed=0.0933x elapsed=0:01:42.17    \nframe=  290 fps=2.8 q=29.3 size=    2304KiB time=00:00:09.60 bitrate=1966.1kbits/s speed=0.0935x elapsed=0:01:42.68    \nframe=  292 fps=2.8 q=29.7 size=    2304KiB time=00:00:09.66 bitrate=1952.6kbits/s speed=0.0937x elapsed=0:01:43.21    \nframe=  294 fps=2.8 q=29.7 size=    2304KiB time=00:00:09.73 bitrate=1939.2kbits/s speed=0.0938x elapsed=0:01:43.72    \nframe=  296 fps=2.8 q=32.5 size=    2304KiB time=00:00:09.80 bitrate=1926.0kbits/s speed=0.094x elapsed=0:01:44.23    \nframe=  299 fps=2.9 q=29.4 size=    2304KiB time=00:00:09.90 bitrate=1906.5kbits/s speed=0.0945x elapsed=0:01:44.75    \nframe=  301 fps=2.9 q=35.5 size=    2304KiB time=00:00:09.96 bitrate=1893.8kbits/s speed=0.0947x elapsed=0:01:45.26    \nframe=  303 fps=2.9 q=31.0 size=    2304KiB time=00:00:10.03 bitrate=1881.2kbits/s speed=0.0948x elapsed=0:01:45.78    \nframe=  304 fps=2.9 q=31.0 size=    2304KiB time=00:00:10.06 bitrate=1875.0kbits/s speed=0.0947x elapsed=0:01:46.30    \nframe=  306 fps=2.9 q=36.6 size=    2304KiB time=00:00:10.13 bitrate=1862.6kbits/s speed=0.0949x elapsed=0:01:46.81    \nframe=  308 fps=2.9 q=30.3 size=    2304KiB time=00:00:10.20 bitrate=1850.5kbits/s speed=0.095x elapsed=0:01:47.32    \nframe=  309 fps=2.9 q=30.5 size=    2304KiB time=00:00:10.23 bitrate=1844.4kbits/s speed=0.0949x elapsed=0:01:47.85    \nframe=  312 fps=2.9 q=35.9 size=    2560KiB time=00:00:10.33 bitrate=2029.5kbits/s speed=0.0954x elapsed=0:01:48.35    \nframe=  313 fps=2.9 q=36.7 size=    2560KiB time=00:00:10.36 bitrate=2023.0kbits/s speed=0.0952x elapsed=0:01:48.87    \nframe=  315 fps=2.9 q=31.3 size=    2560KiB time=00:00:10.43 bitrate=2010.1kbits/s speed=0.0954x elapsed=0:01:49.40    \nframe=  317 fps=2.9 q=34.9 size=    2560KiB time=00:00:10.50 bitrate=1997.3kbits/s speed=0.0955x elapsed=0:01:49.90    \nframe=  320 fps=2.9 q=34.3 size=    2560KiB time=00:00:10.60 bitrate=1978.5kbits/s speed=0.096x elapsed=0:01:50.42    \nframe=  322 fps=2.9 q=36.3 size=    2560KiB time=00:00:10.66 bitrate=1966.1kbits/s speed=0.0962x elapsed=0:01:50.93    \nframe=  324 fps=2.9 q=35.5 size=    2560KiB time=00:00:10.73 bitrate=1953.9kbits/s speed=0.0963x elapsed=0:01:51.45    \nframe=  326 fps=2.9 q=30.1 size=    2560KiB time=00:00:10.80 bitrate=1941.8kbits/s speed=0.0964x elapsed=0:01:51.97    \nframe=  328 fps=2.9 q=36.6 size=    2560KiB time=00:00:10.86 bitrate=1929.9kbits/s speed=0.0966x elapsed=0:01:52.48    \nframe=  330 fps=2.9 q=29.4 size=    2560KiB time=00:00:10.93 bitrate=1918.2kbits/s speed=0.0968x elapsed=0:01:53.00    \nframe=  332 fps=2.9 q=34.0 size=    2560KiB time=00:00:11.00 bitrate=1906.5kbits/s speed=0.0969x elapsed=0:01:53.51    \nframe=  334 fps=2.9 q=29.0 size=    2560KiB time=00:00:11.06 bitrate=1895.0kbits/s speed=0.097x elapsed=0:01:54.03    \nframe=  336 fps=2.9 q=29.3 size=    2560KiB time=00:00:11.13 bitrate=1883.7kbits/s speed=0.0972x elapsed=0:01:54.55    \nframe=  338 fps=2.9 q=34.5 size=    2560KiB time=00:00:11.20 bitrate=1872.5kbits/s speed=0.0973x elapsed=0:01:55.06    \nframe=  341 fps=3.0 q=34.7 size=    2560KiB time=00:00:11.30 bitrate=1855.9kbits/s speed=0.0978x elapsed=0:01:55.57    \nframe=  343 fps=3.0 q=28.8 size=    2560KiB time=00:00:11.36 bitrate=1845.0kbits/s speed=0.0979x elapsed=0:01:56.10    \nframe=  345 fps=3.0 q=34.2 size=    2816KiB time=00:00:11.43 bitrate=2017.7kbits/s speed=0.0981x elapsed=0:01:56.60    \nframe=  348 fps=3.0 q=32.4 size=    2816KiB time=00:00:11.53 bitrate=2000.2kbits/s speed=0.0985x elapsed=0:01:57.13    \nframe=  350 fps=3.0 q=28.9 size=    2816KiB time=00:00:11.60 bitrate=1988.7kbits/s speed=0.0986x elapsed=0:01:57.63    \nframe=  353 fps=3.0 q=28.9 size=    2816KiB time=00:00:11.70 bitrate=1971.7kbits/s speed=0.099x elapsed=0:01:58.16    \nframe=  355 fps=3.0 q=34.2 size=    2816KiB time=00:00:11.76 bitrate=1960.5kbits/s speed=0.0992x elapsed=0:01:58.67    \nframe=  357 fps=3.0 q=31.4 size=    2816KiB time=00:00:11.83 bitrate=1949.5kbits/s speed=0.0993x elapsed=0:01:59.19    \nframe=  361 fps=3.0 q=33.5 size=    2816KiB time=00:00:11.96 bitrate=1927.8kbits/s speed= 0.1x elapsed=0:01:59.71    \nframe=  364 fps=3.0 q=28.5 size=    2816KiB time=00:00:12.06 bitrate=1911.8kbits/s speed= 0.1x elapsed=0:02:00.22    \nframe=  366 fps=3.0 q=31.7 size=    2816KiB time=00:00:12.13 bitrate=1901.3kbits/s speed= 0.1x elapsed=0:02:00.72    \nframe=  369 fps=3.0 q=30.0 size=    2816KiB time=00:00:12.23 bitrate=1885.8kbits/s speed=0.101x elapsed=0:02:01.25    \nframe=  372 fps=3.1 q=30.2 size=    2816KiB time=00:00:12.33 bitrate=1870.5kbits/s speed=0.101x elapsed=0:02:01.76    \nframe=  375 fps=3.1 q=30.4 size=    2816KiB time=00:00:12.43 bitrate=1855.4kbits/s speed=0.102x elapsed=0:02:02.28    \nframe=  378 fps=3.1 q=28.2 size=    2816KiB time=00:00:12.53 bitrate=1840.6kbits/s speed=0.102x elapsed=0:02:02.80    \nframe=  380 fps=3.1 q=30.7 size=    3072KiB time=00:00:12.60 bitrate=1997.3kbits/s speed=0.102x elapsed=0:02:03.30    \nframe=  383 fps=3.1 q=30.1 size=    3072KiB time=00:00:12.70 bitrate=1981.6kbits/s speed=0.103x elapsed=0:02:03.82    \nframe=  385 fps=3.1 q=27.9 size=    3072KiB time=00:00:12.76 bitrate=1971.2kbits/s speed=0.103x elapsed=0:02:04.34    \nframe=  388 fps=3.1 q=28.8 size=    3072KiB time=00:00:12.86 bitrate=1955.9kbits/s speed=0.103x elapsed=0:02:04.85    \nframe=  390 fps=3.1 q=27.8 size=    3072KiB time=00:00:12.93 bitrate=1945.8kbits/s speed=0.103x elapsed=0:02:05.37    \nframe=  392 fps=3.1 q=29.9 size=    3072KiB time=00:00:13.00 bitrate=1935.9kbits/s speed=0.103x elapsed=0:02:05.89    \nframe=  395 fps=3.1 q=29.5 size=    3072KiB time=00:00:13.10 bitrate=1921.1kbits/s speed=0.104x elapsed=0:02:06.40    \nframe=  397 fps=3.1 q=29.1 size=    3072KiB time=00:00:13.16 bitrate=1911.4kbits/s speed=0.104x elapsed=0:02:06.92    \nframe=  399 fps=3.1 q=27.3 size=    3072KiB time=00:00:13.23 bitrate=1901.7kbits/s speed=0.104x elapsed=0:02:07.44    \nframe=  401 fps=3.1 q=26.9 size=    3072KiB time=00:00:13.30 bitrate=1892.2kbits/s speed=0.104x elapsed=0:02:07.95    \nframe=  403 fps=3.1 q=26.4 size=    3072KiB time=00:00:13.36 bitrate=1882.8kbits/s speed=0.104x elapsed=0:02:08.47    \nframe=  406 fps=3.1 q=26.8 size=    3072KiB time=00:00:13.46 bitrate=1868.8kbits/s speed=0.104x elapsed=0:02:08.98    \nframe=  408 fps=3.2 q=28.2 size=    3072KiB time=00:00:13.53 bitrate=1859.6kbits/s speed=0.105x elapsed=0:02:09.50    \nframe=  410 fps=3.2 q=26.2 size=    3072KiB time=00:00:13.60 bitrate=1850.5kbits/s speed=0.105x elapsed=0:02:10.01    \nframe=  412 fps=3.2 q=25.9 size=    3072KiB time=00:00:13.66 bitrate=1841.4kbits/s speed=0.105x elapsed=0:02:10.52    \nframe=  414 fps=3.2 q=26.9 size=    3072KiB time=00:00:13.73 bitrate=1832.5kbits/s speed=0.105x elapsed=0:02:11.05    \nframe=  416 fps=3.2 q=25.6 size=    3328KiB time=00:00:13.80 bitrate=1975.6kbits/s speed=0.105x elapsed=0:02:11.56    \nframe=  418 fps=3.2 q=27.5 size=    3328KiB time=00:00:13.86 bitrate=1966.1kbits/s speed=0.105x elapsed=0:02:12.08    \nframe=  420 fps=3.2 q=24.9 size=    3328KiB time=00:00:13.93 bitrate=1956.7kbits/s speed=0.105x elapsed=0:02:12.59    \nframe=  423 fps=3.2 q=27.1 size=    3328KiB time=00:00:14.03 bitrate=1942.8kbits/s speed=0.105x elapsed=0:02:13.11    \nframe=  425 fps=3.2 q=25.8 size=    3328KiB time=00:00:14.10 bitrate=1933.6kbits/s speed=0.106x elapsed=0:02:13.62    \nframe=  427 fps=3.2 q=28.6 size=    3328KiB time=00:00:14.16 bitrate=1924.5kbits/s speed=0.106x elapsed=0:02:14.13    \nframe=  429 fps=3.2 q=26.2 size=    3328KiB time=00:00:14.23 bitrate=1915.5kbits/s speed=0.106x elapsed=0:02:14.65    \nframe=  431 fps=3.2 q=26.3 size=    3328KiB time=00:00:14.30 bitrate=1906.5kbits/s speed=0.106x elapsed=0:02:15.18    \nframe=  434 fps=3.2 q=26.0 size=    3328KiB time=00:00:14.40 bitrate=1893.3kbits/s speed=0.106x elapsed=0:02:15.68    \nframe=  436 fps=3.2 q=27.5 size=    3328KiB time=00:00:14.46 bitrate=1884.6kbits/s speed=0.106x elapsed=0:02:16.21    \nframe=  439 fps=3.2 q=27.5 size=    3328KiB time=00:00:14.56 bitrate=1871.6kbits/s speed=0.107x elapsed=0:02:16.72    \nframe=  440 fps=3.2 q=24.8 size=    3328KiB time=00:00:14.60 bitrate=1867.4kbits/s speed=0.106x elapsed=0:02:17.24    \nframe=  443 fps=3.2 q=24.6 size=    3328KiB time=00:00:14.70 bitrate=1854.6kbits/s speed=0.107x elapsed=0:02:17.75    \nframe=  445 fps=3.2 q=25.5 size=    3328KiB time=00:00:14.76 bitrate=1846.3kbits/s speed=0.107x elapsed=0:02:18.26    \nframe=  447 fps=3.2 q=25.7 size=    3328KiB time=00:00:14.83 bitrate=1838.0kbits/s speed=0.107x elapsed=0:02:18.78    \nframe=  449 fps=3.2 q=26.9 size=    3584KiB time=00:00:14.90 bitrate=1970.5kbits/s speed=0.107x elapsed=0:02:19.30    \nframe=  451 fps=3.2 q=25.9 size=    3584KiB time=00:00:14.96 bitrate=1961.7kbits/s speed=0.107x elapsed=0:02:19.81    \nframe=  453 fps=3.2 q=25.5 size=    3584KiB time=00:00:15.03 bitrate=1953.0kbits/s speed=0.107x elapsed=0:02:20.33    \nframe=  456 fps=3.2 q=25.6 size=    3584KiB time=00:00:15.13 bitrate=1940.1kbits/s speed=0.107x elapsed=0:02:20.83    \nframe=  458 fps=3.2 q=26.8 size=    3584KiB time=00:00:15.20 bitrate=1931.6kbits/s speed=0.108x elapsed=0:02:21.35    \nframe=  460 fps=3.2 q=25.8 size=    3584KiB time=00:00:15.26 bitrate=1923.2kbits/s speed=0.108x elapsed=0:02:21.88    \nframe=  463 fps=3.3 q=25.4 size=    3584KiB time=00:00:15.36 bitrate=1910.7kbits/s speed=0.108x elapsed=0:02:22.38    \nframe=  465 fps=3.3 q=24.4 size=    3584KiB time=00:00:15.43 bitrate=1902.4kbits/s speed=0.108x elapsed=0:02:22.90    \nframe=  468 fps=3.3 q=25.2 size=    3584KiB time=00:00:15.53 bitrate=1890.2kbits/s speed=0.108x elapsed=0:02:23.42    \nframe=  470 fps=3.3 q=24.7 size=    3584KiB time=00:00:15.60 bitrate=1882.1kbits/s speed=0.108x elapsed=0:02:23.93    \nframe=  472 fps=3.3 q=24.8 size=    3584KiB time=00:00:15.66 bitrate=1874.1kbits/s speed=0.108x elapsed=0:02:24.45    \nframe=  475 fps=3.3 q=24.6 size=    3584KiB time=00:00:15.76 bitrate=1862.2kbits/s speed=0.109x elapsed=0:02:24.96    \nframe=  478 fps=3.3 q=24.5 size=    3584KiB time=00:00:15.86 bitrate=1850.5kbits/s speed=0.109x elapsed=0:02:25.48    \nframe=  481 fps=3.3 q=27.8 size=    3584KiB time=00:00:15.96 bitrate=1838.9kbits/s speed=0.109x elapsed=0:02:26.00    \nframe=  483 fps=3.3 q=25.0 size=    3584KiB time=00:00:16.03 bitrate=1831.2kbits/s speed=0.109x elapsed=0:02:26.51    \nframe=  486 fps=3.3 q=28.3 size=    3840KiB time=00:00:16.13 bitrate=1949.9kbits/s speed=0.11x elapsed=0:02:27.03    \nframe=  488 fps=3.3 q=25.9 size=    3840KiB time=00:00:16.20 bitrate=1941.8kbits/s speed=0.11x elapsed=0:02:27.54    \nframe=  491 fps=3.3 q=25.8 size=    3840KiB time=00:00:16.30 bitrate=1929.9kbits/s speed=0.11x elapsed=0:02:28.06    \nframe=  494 fps=3.3 q=25.7 size=    3840KiB time=00:00:16.40 bitrate=1918.1kbits/s speed=0.11x elapsed=0:02:28.58    \nframe=  496 fps=3.3 q=29.1 size=    3840KiB time=00:00:16.46 bitrate=1910.4kbits/s speed=0.11x elapsed=0:02:29.09    \nframe=  498 fps=3.3 q=26.9 size=    3840KiB time=00:00:16.53 bitrate=1902.7kbits/s speed=0.111x elapsed=0:02:29.61    \nframe=  500 fps=3.3 q=24.9 size=    3840KiB time=00:00:16.60 bitrate=1895.0kbits/s speed=0.111x elapsed=0:02:30.13    \nframe=  503 fps=3.3 q=24.4 size=    3840KiB time=00:00:16.70 bitrate=1883.7kbits/s speed=0.111x elapsed=0:02:30.64    \nframe=  505 fps=3.3 q=29.3 size=    3840KiB time=00:00:16.76 bitrate=1876.2kbits/s speed=0.111x elapsed=0:02:31.16    \nframe=  508 fps=3.3 q=32.1 size=    3840KiB time=00:00:16.86 bitrate=1865.1kbits/s speed=0.111x elapsed=0:02:31.66    \nframe=  511 fps=3.4 q=32.0 size=    3840KiB time=00:00:16.96 bitrate=1854.1kbits/s speed=0.111x elapsed=0:02:32.19    \nframe=  513 fps=3.4 q=25.6 size=    3840KiB time=00:00:17.03 bitrate=1846.8kbits/s speed=0.112x elapsed=0:02:32.71    \nframe=  516 fps=3.4 q=29.1 size=    4096KiB time=00:00:17.13 bitrate=1958.5kbits/s speed=0.112x elapsed=0:02:33.21    \nframe=  518 fps=3.4 q=25.5 size=    4096KiB time=00:00:17.20 bitrate=1950.9kbits/s speed=0.112x elapsed=0:02:33.73    \nframe=  521 fps=3.4 q=28.6 size=    4096KiB time=00:00:17.30 bitrate=1939.6kbits/s speed=0.112x elapsed=0:02:34.25    \nframe=  523 fps=3.4 q=26.8 size=    4096KiB time=00:00:17.36 bitrate=1932.1kbits/s speed=0.112x elapsed=0:02:34.76    \nframe=  526 fps=3.4 q=24.6 size=    4096KiB time=00:00:17.46 bitrate=1921.1kbits/s speed=0.112x elapsed=0:02:35.28    \nframe=  529 fps=3.4 q=27.6 size=    4096KiB time=00:00:17.56 bitrate=1910.1kbits/s speed=0.113x elapsed=0:02:35.79    \nframe=  532 fps=3.4 q=25.8 size=    4096KiB time=00:00:17.66 bitrate=1899.3kbits/s speed=0.113x elapsed=0:02:36.31    \nframe=  534 fps=3.4 q=25.5 size=    4096KiB time=00:00:17.73 bitrate=1892.2kbits/s speed=0.113x elapsed=0:02:36.82    \nframe=  536 fps=3.4 q=27.1 size=    4096KiB time=00:00:17.80 bitrate=1885.1kbits/s speed=0.113x elapsed=0:02:37.34    \nframe=  540 fps=3.4 q=27.6 size=    4096KiB time=00:00:17.93 bitrate=1871.1kbits/s speed=0.114x elapsed=0:02:37.85    \nframe=  543 fps=3.4 q=25.4 size=    4096KiB time=00:00:18.03 bitrate=1860.7kbits/s speed=0.114x elapsed=0:02:38.37    \nframe=  546 fps=3.4 q=25.5 size=    4096KiB time=00:00:18.13 bitrate=1850.4kbits/s speed=0.114x elapsed=0:02:38.88    \nframe=  549 fps=3.4 q=25.3 size=    4096KiB time=00:00:18.23 bitrate=1840.3kbits/s speed=0.114x elapsed=0:02:39.40    \nframe=  552 fps=3.5 q=27.4 size=    4352KiB time=00:00:18.33 bitrate=1944.7kbits/s speed=0.115x elapsed=0:02:39.93    \nframe=  555 fps=3.5 q=26.1 size=    4352KiB time=00:00:18.43 bitrate=1934.1kbits/s speed=0.115x elapsed=0:02:40.45    \nframe=  558 fps=3.5 q=25.4 size=    4352KiB time=00:00:18.53 bitrate=1923.7kbits/s speed=0.115x elapsed=0:02:40.97    \nframe=  561 fps=3.5 q=25.6 size=    4352KiB time=00:00:18.63 bitrate=1913.3kbits/s speed=0.115x elapsed=0:02:41.48    \nframe=  564 fps=3.5 q=26.7 size=    4352KiB time=00:00:18.73 bitrate=1903.1kbits/s speed=0.116x elapsed=0:02:41.99    \nframe=  567 fps=3.5 q=25.8 size=    4352KiB time=00:00:18.83 bitrate=1893.0kbits/s speed=0.116x elapsed=0:02:42.51    \nframe=  571 fps=3.5 q=26.0 size=    4352KiB time=00:00:18.96 bitrate=1879.7kbits/s speed=0.116x elapsed=0:02:43.03    \nframe=  573 fps=3.5 q=25.7 size=    4352KiB time=00:00:19.03 bitrate=1873.1kbits/s speed=0.116x elapsed=0:02:43.54    \nframe=  576 fps=3.5 q=28.1 size=    4352KiB time=00:00:19.13 bitrate=1863.3kbits/s speed=0.117x elapsed=0:02:44.06    \nframe=  579 fps=3.5 q=25.9 size=    4352KiB time=00:00:19.23 bitrate=1853.7kbits/s speed=0.117x elapsed=0:02:44.58    \nframe=  582 fps=3.5 q=25.7 size=    4608KiB time=00:00:19.33 bitrate=1952.5kbits/s speed=0.117x elapsed=0:02:45.09    \nframe=  585 fps=3.5 q=25.8 size=    4608KiB time=00:00:19.43 bitrate=1942.5kbits/s speed=0.117x elapsed=0:02:45.60    \nframe=  588 fps=3.5 q=28.5 size=    4608KiB time=00:00:19.53 bitrate=1932.5kbits/s speed=0.118x elapsed=0:02:46.12    \nframe=  591 fps=3.5 q=26.1 size=    4608KiB time=00:00:19.63 bitrate=1922.7kbits/s speed=0.118x elapsed=0:02:46.63    \nframe=  594 fps=3.6 q=26.1 size=    4608KiB time=00:00:19.73 bitrate=1913.0kbits/s speed=0.118x elapsed=0:02:47.16    \nframe=  596 fps=3.6 q=26.3 size=    4608KiB time=00:00:19.80 bitrate=1906.5kbits/s speed=0.118x elapsed=0:02:47.67    \n[mp4 @ 000001db7d72e340] Starting second pass: moving the moov atom to the beginning of the file\n[out#0/mp4 @ 000001db7d732000] video:4790KiB audio:0KiB subtitle:0KiB other streams:0KiB global headers:2KiB muxing overhead: 0.188781%\nframe=  600 fps=3.6 q=28.7 Lsize=    4799KiB time=00:00:19.93 bitrate=1972.1kbits/s speed=0.119x elapsed=0:02:47.99    \nx265 [info]: frame I:      3, Avg QP:25.11  kb/s: 8480.24 \nx265 [info]: frame P:    397, Avg QP:26.88  kb/s: 2354.39 \nx265 [info]: frame B:    200, Avg QP:30.25  kb/s: 1082.00 \nx265 [info]: Weighted P-Frames: Y:0.0% UV:0.0%\n\nencoded 600 frames in 167.77s (3.58 fps), 1960.89 kb/s, Avg QP:27.99\n",
  "seconds": 168.84682631492615,
  "probe_out": {}
}